<?xml version="1.0" encoding="UTF-8" standalone="no"?>
<!DOCTYPE svg PUBLIC "-//W3C//DTD SVG 1.1//EN" "http://www.w3.org/Graphics/SVG/1.1/DTD/svg11.dtd">
<svg version="1.1" xmlns="http://www.w3.org/2000/svg" xmlns:xlink="http://www.w3.org/1999/xlink" preserveAspectRatio="xMidYMid meet" viewBox="56.18199562485725 43.31704925055425 516 376.3262642707789" width="512" height="372.33"><defs><path d="M320.34 180.3C317.3 121.71 289.45 44.32 289.45 44.32C188.28 160.28 57.18 121.62 57.18 121.62C57.18 121.62 120 346.2 257.5 335.57C257.5 335.57 285.42 324.37 306.26 284.64C306.6 385.42 367.45 414.54 367.45 414.54C499.82 441.43 569.18 201.71 569.18 201.71C418 231 337.29 123.28 337.29 123.28C333.9 134.68 323.72 166.93 320.34 180.3ZM99.93 156.1C158.14 161.81 229.7 140.43 276.04 98.03C295.08 157.02 309.79 277.32 248.47 308.37C178.67 314.11 123.41 219.27 99.93 156.1ZM337.95 322.56C348.97 321.2 377.07 318.79 398.3 325.97C417.96 330.94 441.02 352.55 448.89 360.39C427.17 380.23 402.68 392.21 377.23 387.61C355.37 373.74 343.4 350.1 337.95 322.56ZM404.13 308.7C380.58 300.74 355.79 305.71 337.43 319.76C329.05 273.29 338.62 216.45 350.59 176.57C393.58 216.23 463.56 242.34 526.09 236.47C513.58 272.37 485.85 325.7 450.67 358.74C443.48 330.65 422.12 314.78 404.13 308.7ZM144.27 223.28C145.27 209.69 152 198.5 162.79 194.9C173.35 191.38 185.46 195.98 194.63 206.5C194.62 206.5 178.33 200.72 166.12 204.9C154.66 208.72 148.64 219.6 144.27 223.28ZM252.28 176.2C240.82 180.02 230.43 194.58 230.43 194.58C231.43 181 238.16 169.8 248.95 166.21C260.63 162.32 272.72 168.56 280.78 177.81C275.08 177.49 259.78 171.68 252.28 176.2ZM285.41 221.5C280.57 246.06 263.04 267.37 237.61 275.85C218.65 282.16 190.16 282.09 166.77 261.03C166.77 261.03 208.91 268.25 231.85 258.56C258.86 249.56 274.7 228.92 285.41 221.5ZM459.99 284.48C448.54 280.61 431.48 285.96 431.48 285.96C440.48 275.73 452.58 270.86 463.37 274.5C475.03 278.45 480.91 290.71 481.75 302.96C477.4 299.26 468.7 285.4 459.99 284.48ZM373.96 255.41C362.51 251.54 345.45 256.89 345.45 256.89C354.44 246.66 366.55 241.8 377.34 245.44C387.87 248.99 394.76 259.96 395.73 273.88C391.37 270.19 386.21 259.44 373.96 255.41Z" id="l1PDCivBDa"></path></defs><g><g><use xlink:href="#l1PDCivBDa" opacity="1" fill="#000000" fill-opacity="1"></use><g><use xlink:href="#l1PDCivBDa" opacity="1" fill-opacity="0" stroke="#000000" stroke-width="1" stroke-opacity="0"></use></g></g></g></svg>